<svg preserveAspectRatio="none" width="100%" height="100%" overflow="visible" style="display: block;" viewBox="0 0 1050 9" fill="none" xmlns="http://www.w3.org/2000/svg">
<g id="Frame">
<circle id="Ellipse" cx="1.5" cy="1.5" r="1.5" fill="var(--fill-0, #EEF0F1)"/>
<circle id="Ellipse_2" cx="10.5" cy="1.5" r="1.5" fill="var(--fill-0, #EEF0F1)"/>
<circle id="Ellipse_3" cx="19.5" cy="1.5" r="1.5" fill="var(--fill-0, #EEF0F1)"/>
<circle id="Ellipse_4" cx="28.5" cy="1.5" r="1.5" fill="var(--fill-0, #EEF0F1)"/>
<circle id="Ellipse_5" cx="37.5" cy="1.5" r="1.5" fill="var(--fill-0, #EEF0F1)"/>
<circle id="Ellipse_6" cx="46.5" cy="1.5" r="1.5" fill="var(--fill-0, #EEF0F1)"/>
<circle id="Ellipse_7" cx="55.5" cy="1.5" r="1.5" fill="var(--fill-0, #EEF0F1)"/>
<circle id="Ellipse_8" cx="64.5" cy="1.5" r="1.5" fill="var(--fill-0, #EEF0F1)"/>
<circle id="Ellipse_9" cx="73.5" cy="1.5" r="1.5" fill="var(--fill-0, #EEF0F1)"/>
<circle id="Ellipse_10" cx="82.5" cy="1.5" r="1.5" fill="var(--fill-0, #EEF0F1)"/>
<circle id="Ellipse_11" cx="91.5" cy="1.5" r="1.5" fill="var(--fill-0, #EEF0F1)"/>
<circle id="Ellipse_12" cx="100.5" cy="1.5" r="1.5" fill="var(--fill-0, #EEF0F1)"/>
<circle id="Ellipse_13" cx="109.5" cy="1.5" r="1.5" fill="var(--fill-0, #EEF0F1)"/>
<circle id="Ellipse_14" cx="118.5" cy="1.5" r="1.5" fill="var(--fill-0, #EEF0F1)"/>
<circle id="Ellipse_15" cx="127.5" cy="1.5" r="1.5" fill="var(--fill-0, #EEF0F1)"/>
<circle id="Ellipse_16" cx="136.5" cy="1.5" r="1.5" fill="var(--fill-0, #EEF0F1)"/>
<circle id="Ellipse_17" cx="145.5" cy="1.5" r="1.5" fill="var(--fill-0, #EEF0F1)"/>
<circle id="Ellipse_18" cx="154.5" cy="1.5" r="1.5" fill="var(--fill-0, #EEF0F1)"/>
<circle id="Ellipse_19" cx="163.5" cy="1.5" r="1.5" fill="var(--fill-0, #EEF0F1)"/>
<circle id="Ellipse_20" cx="172.5" cy="1.5" r="1.5" fill="var(--fill-0, #EEF0F1)"/>
<circle id="Ellipse_21" cx="181.5" cy="1.5" r="1.5" fill="var(--fill-0, #EEF0F1)"/>
<circle id="Ellipse_22" cx="190.5" cy="1.5" r="1.5" fill="var(--fill-0, #EEF0F1)"/>
<circle id="Ellipse_23" cx="199.5" cy="1.5" r="1.5" fill="var(--fill-0, #EEF0F1)"/>
<circle id="Ellipse_24" cx="208.5" cy="1.5" r="1.5" fill="var(--fill-0, #EEF0F1)"/>
<circle id="Ellipse_25" cx="217.5" cy="1.5" r="1.5" fill="var(--fill-0, #EEF0F1)"/>
<circle id="Ellipse_26" cx="226.5" cy="1.5" r="1.5" fill="var(--fill-0, #EEF0F1)"/>
<circle id="Ellipse_27" cx="235.5" cy="1.5" r="1.5" fill="var(--fill-0, #EEF0F1)"/>
<circle id="Ellipse_28" cx="244.5" cy="1.5" r="1.5" fill="var(--fill-0, #EEF0F1)"/>
<circle id="Ellipse_29" cx="253.5" cy="1.5" r="1.5" fill="var(--fill-0, #EEF0F1)"/>
<circle id="Ellipse_30" cx="262.5" cy="1.5" r="1.5" fill="var(--fill-0, #EEF0F1)"/>
<circle id="Ellipse_31" cx="271.5" cy="1.5" r="1.5" fill="var(--fill-0, #EEF0F1)"/>
<circle id="Ellipse_32" cx="280.5" cy="1.5" r="1.5" fill="var(--fill-0, #EEF0F1)"/>
<circle id="Ellipse_33" cx="289.5" cy="1.5" r="1.5" fill="var(--fill-0, #EEF0F1)"/>
<circle id="Ellipse_34" cx="298.5" cy="1.5" r="1.5" fill="var(--fill-0, #EEF0F1)"/>
<circle id="Ellipse_35" cx="307.5" cy="1.5" r="1.5" fill="var(--fill-0, #EEF0F1)"/>
<circle id="Ellipse_36" cx="316.5" cy="1.5" r="1.5" fill="var(--fill-0, #EEF0F1)"/>
<circle id="Ellipse_37" cx="325.5" cy="1.5" r="1.5" fill="var(--fill-0, #EEF0F1)"/>
<circle id="Ellipse_38" cx="334.5" cy="1.5" r="1.5" fill="var(--fill-0, #EEF0F1)"/>
<circle id="Ellipse_39" cx="343.5" cy="1.5" r="1.5" fill="var(--fill-0, #EEF0F1)"/>
<circle id="Ellipse_40" cx="352.5" cy="1.5" r="1.5" fill="var(--fill-0, #EEF0F1)"/>
<circle id="Ellipse_41" cx="361.5" cy="1.5" r="1.5" fill="var(--fill-0, #EEF0F1)"/>
<circle id="Ellipse_42" cx="370.5" cy="1.5" r="1.5" fill="var(--fill-0, #EEF0F1)"/>
<circle id="Ellipse_43" cx="379.5" cy="1.5" r="1.5" fill="var(--fill-0, #EEF0F1)"/>
<circle id="Ellipse_44" cx="388.5" cy="1.5" r="1.5" fill="var(--fill-0, #EEF0F1)"/>
<circle id="Ellipse_45" cx="397.5" cy="1.5" r="1.5" fill="var(--fill-0, #EEF0F1)"/>
<circle id="Ellipse_46" cx="406.5" cy="1.5" r="1.5" fill="var(--fill-0, #EEF0F1)"/>
<circle id="Ellipse_47" cx="415.5" cy="1.5" r="1.5" fill="var(--fill-0, #EEF0F1)"/>
<circle id="Ellipse_48" cx="424.5" cy="1.5" r="1.5" fill="var(--fill-0, #EEF0F1)"/>
<circle id="Ellipse_49" cx="433.5" cy="1.5" r="1.5" fill="var(--fill-0, #EEF0F1)"/>
<circle id="Ellipse_50" cx="442.5" cy="1.5" r="1.5" fill="var(--fill-0, #EEF0F1)"/>
<circle id="Ellipse_51" cx="451.5" cy="1.5" r="1.5" fill="var(--fill-0, #EEF0F1)"/>
<circle id="Ellipse_52" cx="460.5" cy="1.5" r="1.5" fill="var(--fill-0, #EEF0F1)"/>
<circle id="Ellipse_53" cx="469.5" cy="1.5" r="1.5" fill="var(--fill-0, #EEF0F1)"/>
<circle id="Ellipse_54" cx="478.5" cy="1.5" r="1.5" fill="var(--fill-0, #EEF0F1)"/>
<circle id="Ellipse_55" cx="487.5" cy="1.5" r="1.5" fill="var(--fill-0, #EEF0F1)"/>
<circle id="Ellipse_56" cx="496.5" cy="1.5" r="1.5" fill="var(--fill-0, #EEF0F1)"/>
<circle id="Ellipse_57" cx="505.5" cy="1.5" r="1.5" fill="var(--fill-0, #EEF0F1)"/>
<circle id="Ellipse_58" cx="514.5" cy="1.5" r="1.5" fill="var(--fill-0, #EEF0F1)"/>
<circle id="Ellipse_59" cx="523.5" cy="1.5" r="1.5" fill="var(--fill-0, #EEF0F1)"/>
<circle id="Ellipse_60" cx="532.5" cy="1.5" r="1.5" fill="var(--fill-0, #EEF0F1)"/>
<circle id="Ellipse_61" cx="541.5" cy="1.5" r="1.5" fill="var(--fill-0, #EEF0F1)"/>
<circle id="Ellipse_62" cx="550.5" cy="1.5" r="1.5" fill="var(--fill-0, #EEF0F1)"/>
<circle id="Ellipse_63" cx="559.5" cy="1.5" r="1.5" fill="var(--fill-0, #EEF0F1)"/>
<circle id="Ellipse_64" cx="568.5" cy="1.5" r="1.5" fill="var(--fill-0, #EEF0F1)"/>
<circle id="Ellipse_65" cx="577.5" cy="1.5" r="1.5" fill="var(--fill-0, #EEF0F1)"/>
<circle id="Ellipse_66" cx="586.5" cy="1.5" r="1.5" fill="var(--fill-0, #EEF0F1)"/>
<circle id="Ellipse_67" cx="595.5" cy="1.5" r="1.5" fill="var(--fill-0, #EEF0F1)"/>
<circle id="Ellipse_68" cx="604.5" cy="1.5" r="1.5" fill="var(--fill-0, #EEF0F1)"/>
<circle id="Ellipse_69" cx="613.5" cy="1.5" r="1.5" fill="var(--fill-0, #EEF0F1)"/>
<circle id="Ellipse_70" cx="622.5" cy="1.5" r="1.5" fill="var(--fill-0, #EEF0F1)"/>
<circle id="Ellipse_71" cx="631.5" cy="1.5" r="1.5" fill="var(--fill-0, #EEF0F1)"/>
<circle id="Ellipse_72" cx="640.5" cy="1.5" r="1.5" fill="var(--fill-0, #EEF0F1)"/>
<circle id="Ellipse_73" cx="649.5" cy="1.5" r="1.5" fill="var(--fill-0, #EEF0F1)"/>
<circle id="Ellipse_74" cx="658.5" cy="1.5" r="1.5" fill="var(--fill-0, #EEF0F1)"/>
<circle id="Ellipse_75" cx="667.5" cy="1.5" r="1.5" fill="var(--fill-0, #EEF0F1)"/>
<circle id="Ellipse_76" cx="676.5" cy="1.5" r="1.5" fill="var(--fill-0, #EEF0F1)"/>
<circle id="Ellipse_77" cx="685.5" cy="1.5" r="1.5" fill="var(--fill-0, #EEF0F1)"/>
<circle id="Ellipse_78" cx="694.5" cy="1.5" r="1.5" fill="var(--fill-0, #EEF0F1)"/>
<circle id="Ellipse_79" cx="703.5" cy="1.5" r="1.5" fill="var(--fill-0, #EEF0F1)"/>
<circle id="Ellipse_80" cx="712.5" cy="1.5" r="1.5" fill="var(--fill-0, #EEF0F1)"/>
<circle id="Ellipse_81" cx="721.5" cy="1.5" r="1.5" fill="var(--fill-0, #EEF0F1)"/>
<circle id="Ellipse_82" cx="730.5" cy="1.5" r="1.5" fill="var(--fill-0, #EEF0F1)"/>
<circle id="Ellipse_83" cx="739.5" cy="1.5" r="1.5" fill="var(--fill-0, #EEF0F1)"/>
<circle id="Ellipse_84" cx="748.5" cy="1.5" r="1.5" fill="var(--fill-0, #EEF0F1)"/>
<circle id="Ellipse_85" cx="757.5" cy="1.5" r="1.5" fill="var(--fill-0, #EEF0F1)"/>
<circle id="Ellipse_86" cx="766.5" cy="1.5" r="1.5" fill="var(--fill-0, #EEF0F1)"/>
<circle id="Ellipse_87" cx="775.5" cy="1.5" r="1.5" fill="var(--fill-0, #EEF0F1)"/>
<circle id="Ellipse_88" cx="784.5" cy="1.5" r="1.5" fill="var(--fill-0, #EEF0F1)"/>
<circle id="Ellipse_89" cx="793.5" cy="1.5" r="1.5" fill="var(--fill-0, #EEF0F1)"/>
<circle id="Ellipse_90" cx="802.5" cy="1.5" r="1.5" fill="var(--fill-0, #EEF0F1)"/>
<circle id="Ellipse_91" cx="811.5" cy="1.5" r="1.5" fill="var(--fill-0, #EEF0F1)"/>
<circle id="Ellipse_92" cx="820.5" cy="1.5" r="1.5" fill="var(--fill-0, #EEF0F1)"/>
<circle id="Ellipse_93" cx="829.5" cy="1.5" r="1.5" fill="var(--fill-0, #EEF0F1)"/>
<circle id="Ellipse_94" cx="838.5" cy="1.5" r="1.5" fill="var(--fill-0, #EEF0F1)"/>
<circle id="Ellipse_95" cx="847.5" cy="1.5" r="1.5" fill="var(--fill-0, #EEF0F1)"/>
<circle id="Ellipse_96" cx="856.5" cy="1.5" r="1.5" fill="var(--fill-0, #EEF0F1)"/>
<circle id="Ellipse_97" cx="865.5" cy="1.5" r="1.5" fill="var(--fill-0, #EEF0F1)"/>
<circle id="Ellipse_98" cx="874.5" cy="1.5" r="1.5" fill="var(--fill-0, #EEF0F1)"/>
<circle id="Ellipse_99" cx="883.5" cy="1.5" r="1.5" fill="var(--fill-0, #EEF0F1)"/>
<circle id="Ellipse_100" cx="892.5" cy="1.5" r="1.5" fill="var(--fill-0, #EEF0F1)"/>
<circle id="Ellipse_101" cx="901.5" cy="1.5" r="1.5" fill="var(--fill-0, #EEF0F1)"/>
<circle id="Ellipse_102" cx="910.5" cy="1.5" r="1.5" fill="var(--fill-0, #EEF0F1)"/>
<circle id="Ellipse_103" cx="919.5" cy="1.5" r="1.5" fill="var(--fill-0, #EEF0F1)"/>
<circle id="Ellipse_104" cx="928.5" cy="1.5" r="1.5" fill="var(--fill-0, #EEF0F1)"/>
<circle id="Ellipse_105" cx="937.5" cy="1.5" r="1.5" fill="var(--fill-0, #EEF0F1)"/>
<circle id="Ellipse_106" cx="946.5" cy="1.5" r="1.5" fill="var(--fill-0, #EEF0F1)"/>
<circle id="Ellipse_107" cx="955.5" cy="1.5" r="1.5" fill="var(--fill-0, #EEF0F1)"/>
<circle id="Ellipse_108" cx="964.5" cy="1.5" r="1.5" fill="var(--fill-0, #EEF0F1)"/>
<circle id="Ellipse_109" cx="973.5" cy="1.5" r="1.5" fill="var(--fill-0, #EEF0F1)"/>
<circle id="Ellipse_110" cx="982.5" cy="1.5" r="1.5" fill="var(--fill-0, #EEF0F1)"/>
<circle id="Ellipse_111" cx="991.5" cy="1.5" r="1.5" fill="var(--fill-0, #EEF0F1)"/>
<circle id="Ellipse_112" cx="1000.5" cy="1.5" r="1.5" fill="var(--fill-0, #EEF0F1)"/>
<circle id="Ellipse_113" cx="1009.5" cy="1.5" r="1.5" fill="var(--fill-0, #EEF0F1)"/>
<circle id="Ellipse_114" cx="1018.5" cy="1.5" r="1.5" fill="var(--fill-0, #EEF0F1)"/>
<circle id="Ellipse_115" cx="1027.5" cy="1.5" r="1.5" fill="var(--fill-0, #EEF0F1)"/>
<circle id="Ellipse_116" cx="1036.5" cy="1.5" r="1.5" fill="var(--fill-0, #EEF0F1)"/>
<circle id="Ellipse_117" cx="1045.5" cy="1.5" r="1.5" fill="var(--fill-0, #EEF0F1)"/>
</g>
</svg>
