<svg preserveAspectRatio="none" width="100%" height="100%" overflow="visible" style="display: block;" viewBox="0 0 12 12.0001" fill="none" xmlns="http://www.w3.org/2000/svg">
<g id="ai-spark-generate-music-fill">
<path id="Union" d="M9.97184 0.0605415C10.9913 -0.228611 11.9998 0.554362 12 1.63497V7.91432L11.9969 8.0404C11.9326 9.33564 10.8841 10.3657 9.6 10.3657C8.27456 10.3657 7.20008 9.26815 7.2 7.91432C7.20008 6.56048 8.27456 5.4629 9.6 5.4629C9.8808 5.4629 10.1495 5.51447 10.4 5.60492V3.26922L4.8 4.85806V9.54859L4.79688 9.67467C4.73256 10.9699 3.68408 12 2.4 12C1.07454 12 4.8e-05 10.9024 0 9.54859C5.6e-05 8.19476 1.07455 7.09718 2.4 7.09718C2.6808 7.09718 2.94952 7.14874 3.2 7.2392V3.22379C3.20016 2.48975 3.67952 1.84579 4.37184 1.64933L9.97184 0.0605415Z" fill="var(--fill-0, white)"/>
</g>
</svg>
