<svg preserveAspectRatio="none" width="100%" height="100%" overflow="visible" style="display: block;" viewBox="0 0 91.4136 14.033" fill="none" xmlns="http://www.w3.org/2000/svg">
<path id="Arrow 1" d="M1.28458 7.17865C0.755088 7.02162 0.198557 7.32357 0.0415321 7.85306C-0.115493 8.38255 0.186452 8.93908 0.715944 9.09611L1.00026 8.13738L1.28458 7.17865ZM1.09614 8.16581L0.811817 9.12454L0.855068 9.13737L0.899298 9.14625L1.09614 8.16581ZM4.89468 8.98611L4.6286 9.95006L4.89468 8.98611ZM7.92634 9.94789L7.51849 10.8609L7.92634 9.94789ZM9.39079 10.602L8.98294 11.5151L9.39079 10.602ZM11.6992 11.1856L11.5386 12.1726L11.6992 11.1856ZM14.049 11.5853L13.8671 12.5686L14.049 11.5853ZM15.5962 11.8716L15.7782 10.8883L15.5962 11.8716ZM17.153 12.0718L17.0804 13.0691L17.153 12.0718ZM18.7193 12.1857L18.7918 11.1884L18.7193 12.1857ZM20.2888 12.2971L20.2198 13.2947L20.2888 12.2971ZM21.8617 12.4058L21.9307 11.4082L21.8617 12.4058ZM26.6076 12.2479L26.4128 11.267L26.6076 12.2479ZM27.3879 12.0929L27.5827 13.0737L27.3879 12.0929ZM28.1682 11.9379L27.9734 10.9571L28.1682 11.9379ZM30.4753 11.3312L30.1915 10.3723L30.4753 11.3312ZM31.2386 11.1053L30.9549 10.1464L31.2386 11.1053ZM32.7825 10.7L32.5586 9.72545L32.7825 10.7ZM33.5631 10.5207L33.7871 11.4952L33.5631 10.5207ZM34.3437 10.3413L34.1197 9.36667L34.3437 10.3413ZM35.8534 9.84037L35.4499 8.92538L35.8534 9.84037ZM37.3116 9.19739L37.7151 10.1124L37.3116 9.19739ZM38.7381 8.46703L39.2439 9.32971L38.7381 8.46703ZM40.133 7.64928L39.6272 6.7866L40.133 7.64928ZM42.427 6.98476L42.2689 5.99734L42.427 6.98476ZM43.2253 6.85693L43.3834 7.84435L43.2253 6.85693ZM44.7504 6.38325L45.1801 7.28624L44.7504 6.38325ZM45.4773 6.0374L45.0476 5.13441L45.4773 6.0374ZM46.2041 5.69155L45.7744 4.78856L46.2041 5.69155ZM49.3629 5.38442L49.347 6.3843L49.3629 5.38442ZM51.6989 4.85125L52.036 5.79274L51.6989 4.85125ZM52.4616 4.57821L52.1246 3.63673L52.4616 4.57821ZM54.0024 4.13322L54.2182 5.10966L54.0024 4.13322ZM54.7804 3.96127L54.5646 2.98484L54.7804 3.96127ZM55.5584 3.78932L55.7742 4.76576L55.5584 3.78932ZM58.7428 3.57854L58.7589 4.57841L58.7428 3.57854ZM61.9093 3.25441L62.0398 4.24586L61.9093 3.25441ZM66.6631 3.2192L66.7511 4.21532L66.6631 3.2192ZM68.2422 3.07976L68.1543 2.08364L68.2422 3.07976ZM69.8189 3.1016L69.9344 2.1083L69.8189 3.1016ZM71.393 3.28471L71.2775 4.27802L71.393 3.28471ZM72.9513 3.55672L72.7235 4.53042L72.9513 3.55672ZM74.4938 3.91762L74.7217 2.94392L74.4938 3.91762ZM76.0637 4.21341L75.9208 5.20314L76.0637 4.21341ZM76.8624 4.32875L76.7194 5.31848L76.8624 4.32875ZM77.661 4.44408L77.5181 5.43382L77.661 4.44408ZM79.1874 4.88763L78.7763 5.79922L79.1874 4.88763ZM79.9152 5.21585L80.3263 4.30427L79.9152 5.21585ZM82.1426 6.07272L82.3939 5.10482L82.1426 6.07272ZM83.6862 6.47359L83.4348 7.44149L83.6862 6.47359ZM85.1775 7.02618L84.7379 7.92437L85.1775 7.02618ZM86.6165 7.73049L86.1769 8.62868L86.6165 7.73049ZM88.1112 8.26087L87.8871 9.23544L88.1112 8.26087ZM89.6615 8.61731L89.4374 9.59188L89.6615 8.61731ZM90.4111 8.86944L91.3565 9.19544L90.4111 8.86944ZM90.3856 8.94335L91.0064 9.72732L91.2357 9.54579L91.331 9.26936L90.3856 8.94335ZM90.2401 9.05858L89.6193 8.27461L88.1874 9.40851L89.9141 10.004L90.2401 9.05858ZM90.7726 9.99018C91.2691 9.7483 91.4755 9.14973 91.2336 8.65322L87.292 0.562268C87.0501 0.0657668 86.4516 -0.140646 85.9551 0.101232C85.4586 0.34311 85.2521 0.941684 85.494 1.43819L88.9977 8.63015L81.8057 12.1338C81.3092 12.3757 81.1028 12.9743 81.3447 13.4708C81.5866 13.9673 82.1851 14.1737 82.6816 13.9318L90.7726 9.99018ZM1.00026 8.13738L0.715944 9.09611L0.811817 9.12454L1.09614 8.16581L1.38045 7.20708L1.28458 7.17865L1.00026 8.13738ZM1.09614 8.16581L0.899298 9.14625L2.41533 9.45061L2.61217 8.47018L2.809 7.48974L1.29297 7.18537L1.09614 8.16581ZM2.61217 8.47018L2.41533 9.45061C3.42009 9.65233 4.15283 9.81873 4.6286 9.95006L4.89468 8.98611L5.16075 8.02216C4.61455 7.87139 3.82562 7.69384 2.809 7.48974L2.61217 8.47018ZM4.89468 8.98611L4.6286 9.95006L5.39508 10.1616L5.66116 9.19767L5.92723 8.23372L5.16075 8.02216L4.89468 8.98611ZM5.66116 9.19767L5.39508 10.1616L6.16156 10.3732L6.42764 9.40924L6.69371 8.44529L5.92723 8.23372L5.66116 9.19767ZM6.42764 9.40924L6.16156 10.3732C6.62366 10.5007 7.07586 10.6632 7.51849 10.8609L7.92634 9.94789L8.33419 9.03484C7.80052 8.79645 7.25358 8.59983 6.69371 8.44529L6.42764 9.40924ZM7.92634 9.94789L7.51849 10.8609L8.25072 11.188L8.65857 10.275L9.06642 9.36191L8.33419 9.03484L7.92634 9.94789ZM8.65857 10.275L8.25072 11.188L8.98294 11.5151L9.39079 10.602L9.79864 9.68899L9.06642 9.36191L8.65857 10.275ZM9.39079 10.602L8.98294 11.5151C9.54961 11.7682 10.1395 11.9449 10.7505 12.0444L10.9111 11.0574L11.0717 10.0704C10.632 9.99879 10.2083 9.87197 9.79864 9.68899L9.39079 10.602ZM10.9111 11.0574L10.7505 12.0444L11.5386 12.1726L11.6992 11.1856L11.8598 10.1986L11.0717 10.0704L10.9111 11.0574ZM11.6992 11.1856L11.5386 12.1726L12.3267 12.3009L12.4873 11.3139L12.6479 10.3269L11.8598 10.1986L11.6992 11.1856ZM12.4873 11.3139L12.3267 12.3009C12.8451 12.3853 13.3585 12.4745 13.8671 12.5686L14.049 11.5853L14.231 10.602C13.708 10.5052 13.1804 10.4135 12.6479 10.3269L12.4873 11.3139ZM14.049 11.5853L13.8671 12.5686L14.6407 12.7118L14.8226 11.7285L15.0046 10.7452L14.231 10.602L14.049 11.5853ZM14.8226 11.7285L14.6407 12.7118L15.4143 12.8549L15.5962 11.8716L15.7782 10.8883L15.0046 10.7452L14.8226 11.7285ZM15.5962 11.8716L15.4143 12.8549C15.9661 12.957 16.5216 13.0285 17.0804 13.0691L17.153 12.0718L17.2256 11.0744C16.7402 11.0391 16.2578 10.9771 15.7782 10.8883L15.5962 11.8716ZM17.153 12.0718L17.0804 13.0691L17.8636 13.1261L17.9361 12.1287L18.0087 11.1314L17.2256 11.0744L17.153 12.0718ZM17.9361 12.1287L17.8636 13.1261L18.6467 13.1831L18.7193 12.1857L18.7918 11.1884L18.0087 11.1314L17.9361 12.1287ZM18.7193 12.1857L18.6467 13.1831C19.17 13.2212 19.6944 13.2584 20.2198 13.2947L20.2888 12.2971L20.3578 11.2995C19.8347 11.2633 19.3127 11.2263 18.7918 11.1884L18.7193 12.1857ZM20.2888 12.2971L20.2198 13.2947L21.0063 13.3491L21.0753 12.3515L21.1442 11.3538L20.3578 11.2995L20.2888 12.2971ZM21.0753 12.3515L21.0063 13.3491L21.7927 13.4034L21.8617 12.4058L21.9307 11.4082L21.1442 11.3538L21.0753 12.3515ZM21.8617 12.4058L21.7927 13.4034C22.3462 13.4417 22.9023 13.4558 23.461 13.4457L23.4429 12.4459L23.4249 11.446C22.9238 11.4551 22.4258 11.4424 21.9307 11.4082L21.8617 12.4058ZM23.4429 12.4459L23.461 13.4457L24.2557 13.4314L24.2377 12.4315L24.2197 11.4317L23.4249 11.446L23.4429 12.4459ZM24.2377 12.4315L24.2557 13.4314L25.0505 13.417L25.0325 12.4172L25.0144 11.4174L24.2197 11.4317L24.2377 12.4315ZM25.0325 12.4172L25.0505 13.417C25.6398 13.4064 26.224 13.3436 26.8024 13.2287L26.6076 12.2479L26.4128 11.267C25.9507 11.3588 25.4849 11.4089 25.0144 11.4174L25.0325 12.4172ZM26.6076 12.2479L26.8024 13.2287L27.5827 13.0737L27.3879 12.0929L27.1931 11.112L26.4128 11.267L26.6076 12.2479ZM27.3879 12.0929L27.5827 13.0737L28.3631 12.9187L28.1682 11.9379L27.9734 10.9571L27.1931 11.112L27.3879 12.0929ZM28.1682 11.9379L28.3631 12.9187C28.9133 12.8095 29.4575 12.6752 29.9957 12.516L29.7119 11.557L29.4282 10.5981C28.9486 10.7401 28.4637 10.8597 27.9734 10.9571L28.1682 11.9379ZM29.7119 11.557L29.9957 12.516L30.759 12.2901L30.4753 11.3312L30.1915 10.3723L29.4282 10.5981L29.7119 11.557ZM30.4753 11.3312L30.759 12.2901L31.5223 12.0642L31.2386 11.1053L30.9549 10.1464L30.1915 10.3723L30.4753 11.3312ZM31.2386 11.1053L31.5223 12.0642C32.0114 11.9195 32.5061 11.7897 33.0065 11.6746L32.7825 10.7L32.5586 9.72545C32.0182 9.84964 31.4836 9.98995 30.9549 10.1464L31.2386 11.1053ZM32.7825 10.7L33.0065 11.6746L33.7871 11.4952L33.5631 10.5207L33.3392 9.54606L32.5586 9.72545L32.7825 10.7ZM33.5631 10.5207L33.7871 11.4952L34.5677 11.3159L34.3437 10.3413L34.1197 9.36667L33.3392 9.54606L33.5631 10.5207ZM34.3437 10.3413L34.5677 11.3159C35.1494 11.1822 35.7127 10.9953 36.2569 10.7554L35.8534 9.84037L35.4499 8.92538C35.022 9.11408 34.5789 9.26115 34.1197 9.36667L34.3437 10.3413ZM35.8534 9.84037L36.2569 10.7554L36.986 10.4339L36.5825 9.51888L36.179 8.60389L35.4499 8.92538L35.8534 9.84037ZM36.5825 9.51888L36.986 10.4339L37.7151 10.1124L37.3116 9.19739L36.9081 8.2824L36.179 8.60389L36.5825 9.51888ZM37.3116 9.19739L37.7151 10.1124C38.2367 9.88237 38.7463 9.62139 39.2439 9.32971L38.7381 8.46703L38.2324 7.60435C37.8 7.85783 37.3586 8.08376 36.9081 8.2824L37.3116 9.19739ZM38.7381 8.46703L39.2439 9.32971L39.9413 8.92083L39.4355 8.05815L38.9298 7.19547L38.2324 7.60435L38.7381 8.46703ZM39.4355 8.05815L39.9413 8.92083L40.6387 8.51196L40.133 7.64928L39.6272 6.7866L38.9298 7.19547L39.4355 8.05815ZM40.133 7.64928L40.6387 8.51196C40.9966 8.30219 41.3772 8.16559 41.7868 8.1L41.6287 7.11258L41.4706 6.12516C40.8158 6.23001 40.1993 6.45122 39.6272 6.7866L40.133 7.64928ZM41.6287 7.11258L41.7868 8.1L42.5851 7.97218L42.427 6.98476L42.2689 5.99734L41.4706 6.12516L41.6287 7.11258ZM42.427 6.98476L42.5851 7.97218L43.3834 7.84435L43.2253 6.85693L43.0672 5.86951L42.2689 5.99734L42.427 6.98476ZM43.2253 6.85693L43.3834 7.84435C44.0093 7.74414 44.6091 7.55793 45.1801 7.28624L44.7504 6.38325L44.3208 5.48026C43.9226 5.66971 43.5057 5.79929 43.0672 5.86951L43.2253 6.85693ZM44.7504 6.38325L45.1801 7.28624L45.9069 6.94039L45.4773 6.0374L45.0476 5.13441L44.3208 5.48026L44.7504 6.38325ZM45.4773 6.0374L45.9069 6.94039L46.6338 6.59454L46.2041 5.69155L45.7744 4.78856L45.0476 5.13441L45.4773 6.0374ZM46.2041 5.69155L46.6338 6.59454C46.9782 6.43064 47.3381 6.35231 47.7257 6.35848L47.7416 5.35861L47.7575 4.35873C47.0642 4.34769 46.3991 4.49132 45.7744 4.78856L46.2041 5.69155ZM47.7416 5.35861L47.7257 6.35848L48.5363 6.37139L48.5522 5.37151L48.5682 4.37164L47.7575 4.35873L47.7416 5.35861ZM48.5522 5.37151L48.5363 6.37139L49.347 6.3843L49.3629 5.38442L49.3788 4.38455L48.5682 4.37164L48.5522 5.37151ZM49.3629 5.38442L49.347 6.3843C50.0075 6.39482 50.6515 6.28836 51.2733 6.06578L50.9362 5.12429L50.5992 4.1828C50.204 4.32428 49.7991 4.39124 49.3788 4.38455L49.3629 5.38442ZM50.9362 5.12429L51.2733 6.06578L52.036 5.79274L51.6989 4.85125L51.3619 3.90976L50.5992 4.1828L50.9362 5.12429ZM51.6989 4.85125L52.036 5.79274L52.7987 5.5197L52.4616 4.57821L52.1246 3.63673L51.3619 3.90976L51.6989 4.85125ZM52.4616 4.57821L52.7987 5.5197C53.2682 5.35163 53.7413 5.21506 54.2182 5.10966L54.0024 4.13322L53.7866 3.15679C53.2261 3.28066 52.672 3.44075 52.1246 3.63673L52.4616 4.57821ZM54.0024 4.13322L54.2182 5.10966L54.9962 4.93771L54.7804 3.96127L54.5646 2.98484L53.7866 3.15679L54.0024 4.13322ZM54.7804 3.96127L54.9962 4.93771L55.7742 4.76576L55.5584 3.78932L55.3426 2.81288L54.5646 2.98484L54.7804 3.96127ZM55.5584 3.78932L55.7742 4.76576C56.2268 4.66572 56.6866 4.61185 57.1547 4.60429L57.1385 3.60442L57.1224 2.60455C56.5209 2.61426 55.9273 2.68365 55.3426 2.81288L55.5584 3.78932ZM57.1385 3.60442L57.1547 4.60429L57.9568 4.59135L57.9406 3.59148L57.9245 2.59161L57.1224 2.60455L57.1385 3.60442ZM57.9406 3.59148L57.9568 4.59135L58.7589 4.57841L58.7428 3.57854L58.7266 2.57867L57.9245 2.59161L57.9406 3.59148ZM58.7428 3.57854L58.7589 4.57841C59.3315 4.56917 59.8998 4.5275 60.4635 4.45331L60.333 3.46186L60.2025 2.47041C59.7154 2.53453 59.2235 2.57065 58.7266 2.57867L58.7428 3.57854ZM60.333 3.46186L60.4635 4.45331L61.2516 4.34959L61.1211 3.35814L60.9907 2.36669L60.2025 2.47041L60.333 3.46186ZM61.1211 3.35814L61.2516 4.34959L62.0398 4.24586L61.9093 3.25441L61.7788 2.26296L60.9907 2.36669L61.1211 3.35814ZM61.9093 3.25441L62.0398 4.24586C62.5075 4.18429 62.9767 4.16378 63.448 4.18429L63.4915 3.18524L63.5349 2.18618C62.9475 2.16061 62.3619 2.18622 61.7788 2.26296L61.9093 3.25441ZM63.4915 3.18524L63.448 4.18429L64.242 4.21885L64.2855 3.21979L64.329 2.22074L63.5349 2.18618L63.4915 3.18524ZM64.2855 3.21979L64.242 4.21885L65.0361 4.25341L65.0796 3.25435L65.123 2.2553L64.329 2.22074L64.2855 3.21979ZM65.0796 3.25435L65.0361 4.25341C65.6091 4.27835 66.1809 4.26567 66.7511 4.21532L66.6631 3.2192L66.5752 2.22307C66.0926 2.26568 65.6087 2.27644 65.123 2.2553L65.0796 3.25435ZM66.6631 3.2192L66.7511 4.21532L67.5406 4.1456L67.4527 3.14948L67.3647 2.15336L66.5752 2.22307L66.6631 3.2192ZM67.4527 3.14948L67.5406 4.1456L68.3302 4.07589L68.2422 3.07976L68.1543 2.08364L67.3647 2.15336L67.4527 3.14948ZM68.2422 3.07976L68.3302 4.07589C68.7888 4.03539 69.2462 4.04173 69.7033 4.0949L69.8189 3.1016L69.9344 2.1083C69.3421 2.0394 68.7484 2.03118 68.1543 2.08364L68.2422 3.07976ZM69.8189 3.1016L69.7033 4.0949L70.4904 4.18646L70.6059 3.19316L70.7215 2.19986L69.9344 2.1083L69.8189 3.1016ZM70.6059 3.19316L70.4904 4.18646L71.2775 4.27802L71.393 3.28471L71.5086 2.29141L70.7215 2.19986L70.6059 3.19316ZM71.393 3.28471L71.2775 4.27802C71.7644 4.33466 72.2464 4.41879 72.7235 4.53042L72.9513 3.55672L73.1792 2.58302C72.628 2.45405 72.071 2.35684 71.5086 2.29141L71.393 3.28471ZM72.9513 3.55672L72.7235 4.53042L73.4948 4.71088L73.7226 3.73717L73.9504 2.76347L73.1792 2.58302L72.9513 3.55672ZM73.7226 3.73717L73.4948 4.71088L74.266 4.89133L74.4938 3.91762L74.7217 2.94392L73.9504 2.76347L73.7226 3.73717ZM74.4938 3.91762L74.266 4.89133C74.8087 5.01831 75.3604 5.12221 75.9208 5.20314L76.0637 4.21341L76.2067 3.22368C75.7022 3.15083 75.2072 3.05754 74.7217 2.94392L74.4938 3.91762ZM76.0637 4.21341L75.9208 5.20314L76.7194 5.31848L76.8624 4.32875L77.0053 3.33901L76.2067 3.22368L76.0637 4.21341ZM76.8624 4.32875L76.7194 5.31848L77.5181 5.43382L77.661 4.44408L77.804 3.45435L77.0053 3.33901L76.8624 4.32875ZM77.661 4.44408L77.5181 5.43382C77.9589 5.49748 78.3774 5.61929 78.7763 5.79922L79.1874 4.88763L79.5986 3.97605C79.0272 3.71836 78.428 3.54447 77.804 3.45435L77.661 4.44408ZM79.1874 4.88763L78.7763 5.79922L79.5041 6.12743L79.9152 5.21585L80.3263 4.30427L79.5986 3.97605L79.1874 4.88763ZM79.9152 5.21585L79.5041 6.12743L80.2319 6.45565L80.643 5.54406L81.0541 4.63248L80.3263 4.30427L79.9152 5.21585ZM80.643 5.54406L80.2319 6.45565C80.7685 6.69768 81.3218 6.89275 81.8912 7.04061L82.1426 6.07272L82.3939 5.10482C81.9342 4.98543 81.4877 4.82806 81.0541 4.63248L80.643 5.54406ZM82.1426 6.07272L81.8912 7.04061L82.663 7.24105L82.9144 6.27315L83.1657 5.30526L82.3939 5.10482L82.1426 6.07272ZM82.9144 6.27315L82.663 7.24105L83.4348 7.44149L83.6862 6.47359L83.9375 5.5057L83.1657 5.30526L82.9144 6.27315ZM83.6862 6.47359L83.4348 7.44149C83.8842 7.55817 84.3182 7.71896 84.7379 7.92437L85.1775 7.02618L85.6171 6.128C85.0775 5.86387 84.5173 5.65626 83.9375 5.5057L83.6862 6.47359ZM85.1775 7.02618L84.7379 7.92437L85.4574 8.27653L85.897 7.37834L86.3366 6.48015L85.6171 6.128L85.1775 7.02618ZM85.897 7.37834L85.4574 8.27653L86.1769 8.62868L86.6165 7.73049L87.0561 6.8323L86.3366 6.48015L85.897 7.37834ZM86.6165 7.73049L86.1769 8.62868C86.7248 8.89683 87.2953 9.09937 87.8871 9.23544L88.1112 8.26087L88.3352 7.28629C87.8935 7.18474 87.4676 7.0337 87.0561 6.8323L86.6165 7.73049ZM88.1112 8.26087L87.8871 9.23544L88.6622 9.41366L88.8863 8.43909L89.1104 7.46451L88.3352 7.28629L88.1112 8.26087ZM88.8863 8.43909L88.6622 9.41366L89.4374 9.59188L89.6615 8.61731L89.8855 7.64273L89.1104 7.46451L88.8863 8.43909ZM89.6615 8.61731L89.4374 9.59188C89.6889 9.64971 89.8412 9.69158 89.9177 9.71728C89.9654 9.73334 89.9355 9.72733 89.877 9.69382C89.8556 9.68159 89.7501 9.62182 89.646 9.50042C89.5388 9.37544 89.3033 9.01455 89.4657 8.54344L90.4111 8.86944L91.3565 9.19544C91.5232 8.71201 91.2836 8.33771 91.164 8.19824C91.0474 8.06235 90.9211 7.98701 90.8706 7.95811C90.7539 7.89127 90.6324 7.84759 90.5552 7.82162C90.3818 7.76328 90.1508 7.70372 89.8855 7.64273L89.6615 8.61731ZM90.4111 8.86944L89.4657 8.54344L89.4402 8.61735L90.3856 8.94335L91.331 9.26936L91.3565 9.19544L90.4111 8.86944ZM90.3856 8.94335L89.7648 8.15938L89.6193 8.27461L90.2401 9.05858L90.8609 9.84255L91.0064 9.72732L90.3856 8.94335ZM90.2401 9.05858L89.9141 10.004L90.0086 10.0366L90.3346 9.09118L90.6606 8.14581L90.5661 8.11321L90.2401 9.05858Z" fill="var(--stroke-0, #28A2CD)"/>
</svg>
