<svg preserveAspectRatio="none" width="100%" height="100%" overflow="visible" style="display: block;" viewBox="0 0 112.665 32.7121" fill="none" xmlns="http://www.w3.org/2000/svg">
<path id="Arrow 1" d="M1.67861 0.265503C1.27296 -0.109281 0.640288 -0.0842561 0.265503 0.321398C-0.109281 0.727052 -0.0842561 1.35972 0.321398 1.73451L1 1L1.67861 0.265503ZM1.07346 1.06787L0.394848 1.80237L0.405065 1.81181L0.41554 1.82096L1.07346 1.06787ZM2.22824 2.0767L1.57032 2.8298L2.22824 2.0767ZM5.18877 4.6192L4.54142 5.38139L5.18877 4.6192ZM7.48291 6.83593L8.19278 6.1316L7.48291 6.83593ZM8.75603 7.77129L8.29652 8.65945L8.75603 7.77129ZM9.46508 8.13813L9.00556 9.0263L9.46508 8.13813ZM11.5684 9.26601L12.067 8.39922L11.5684 9.26601ZM12.9387 10.0544L13.4374 9.1876L12.9387 10.0544ZM15.7533 11.4887L15.3144 12.3872L15.7533 11.4887ZM17.1616 12.2113L16.6878 13.0919L17.1616 12.2113ZM17.8602 12.5872L18.3341 11.7066L17.8602 12.5872ZM18.5588 12.9631L18.0849 13.8437L18.5588 12.9631ZM19.9732 13.6858L20.4092 12.7858L19.9732 13.6858ZM22.8761 14.9748L22.5634 15.9246L22.8761 14.9748ZM24.3867 15.472L24.6993 14.5221L24.3867 15.472ZM25.9089 15.9346L26.1776 14.9714L25.9089 15.9346ZM26.6758 16.1486L26.4071 17.1118L26.6758 16.1486ZM27.4427 16.3625L27.174 17.3258L27.4427 16.3625ZM28.9699 16.8378L28.6449 17.7835L28.9699 16.8378ZM29.7302 17.0991L30.0552 16.1534L29.7302 17.0991ZM30.4905 17.3604L30.8155 16.4147L30.4905 17.3604ZM32.0482 17.6944L32.139 16.6986L32.0482 17.6944ZM33.643 17.8399L33.7338 16.844L33.643 17.8399ZM36.8616 17.7322L36.7873 16.7349L36.8616 17.7322ZM38.4518 17.8696L38.6964 16.9L38.4518 17.8696ZM40.018 18.2649L39.7733 19.2345L40.018 18.2649ZM41.5996 18.3445L41.7458 19.3337L41.5996 18.3445ZM42.3982 18.2264L42.2519 17.2372L42.3982 18.2264ZM43.1967 18.1084L43.3429 19.0977L43.1967 18.1084ZM47.976 18.3896L47.7392 17.418L47.976 18.3896ZM49.5511 18.0057L49.7879 18.9773L49.5511 18.0057ZM51.1255 17.7029L50.9859 16.7127L51.1255 17.7029ZM52.6992 17.481L52.8388 18.4713L52.6992 17.481ZM54.2862 17.3983L54.251 18.3977L54.2862 17.3983ZM55.8866 17.4546L55.9217 16.4552L55.8866 17.4546ZM57.4773 17.3969L57.5853 18.3911L57.4773 17.3969ZM58.2679 17.3111L58.16 16.3169L58.2679 17.3111ZM59.0585 17.2253L58.9506 16.2311L59.0585 17.2253ZM60.6489 17.1208L60.6257 16.1211L60.6489 17.1208ZM62.2484 17.0837L62.2716 18.0834L62.2484 17.0837ZM63.8251 16.8892L64.046 17.8645L63.8251 16.8892ZM65.379 16.5372L65.5999 17.5125L65.379 16.5372ZM66.9477 16.3016L66.8726 15.3044L66.9477 16.3016ZM68.5312 16.1824L68.4561 15.1852L68.5312 16.1824ZM71.7043 16.0838L71.6879 15.084L71.7043 16.0838ZM73.2968 15.9497L73.4468 16.9384L73.2968 15.9497ZM74.8944 15.7073L74.7444 14.7186L74.8944 15.7073ZM76.485 15.7098L76.6393 14.7218L76.485 15.7098ZM78.0687 15.9571L77.9144 16.9451L78.0687 15.9571ZM79.6605 16.1084L79.695 15.1089L79.6605 16.1084ZM81.2605 16.1636L81.2259 17.163L81.2605 16.1636ZM82.8312 16.4176L83.1129 15.4581L82.8312 16.4176ZM84.3726 16.8702L84.0908 17.8297L84.3726 16.8702ZM85.9397 17.1852L86.0504 16.1914L85.9397 17.1852ZM86.7362 17.274L86.6255 18.2678L86.7362 17.274ZM87.5327 17.3627L87.4219 18.3565L87.5327 17.3627ZM89.0808 17.7253L89.4232 16.7858L89.0808 17.7253ZM90.5841 18.2732L90.2417 19.2127L90.5841 18.2732ZM92.1182 18.7275L92.3428 17.7531L92.1182 18.7275ZM93.6829 19.0883L93.9076 18.1139L93.6829 19.0883ZM95.1521 19.6933L95.6779 18.8427L95.1521 19.6933ZM96.5256 20.5423L95.9998 21.3929L96.5256 20.5423ZM97.9759 21.2209L98.2916 20.2721L97.9759 21.2209ZM99.503 21.729L99.1873 22.6779L99.503 21.729ZM100.962 22.3816L100.464 23.2492L100.962 22.3816ZM101.657 22.7802L101.159 23.6477L101.657 22.7802ZM102.352 23.1787L102.849 22.3112L102.352 23.1787ZM103.593 24.1854L104.337 23.5175L103.593 24.1854ZM104.139 24.7936L103.394 25.4615L104.139 24.7936ZM104.684 25.4018L105.429 24.7339L104.684 25.4018ZM105.831 26.5178L105.186 27.2816L105.831 26.5178ZM106.432 27.0255L105.787 27.7894L106.432 27.0255ZM107.033 27.5333L107.678 26.7694L107.033 27.5333ZM108.357 28.4334L107.879 29.3122L108.357 28.4334ZM109.801 29.2182L109.324 30.0969L109.801 29.2182ZM110.811 30.0503L111.648 29.5031L110.811 30.0503ZM111.099 30.49L111.936 29.9428L111.099 30.49ZM111.386 30.9297L110.549 31.4769L111.386 30.9297ZM111.665 31.3772L112.324 32.1292L111.665 31.3772ZM111.656 31.385L111.155 32.2505L111.776 32.6099L112.315 32.137L111.656 31.385ZM111.565 31.3324L112.066 30.467L110.883 32.0635L111.565 31.3324ZM111.673 32.4C112.225 32.3809 112.657 31.918 112.638 31.366L112.326 22.3714C112.307 21.8194 111.844 21.3875 111.292 21.4066C110.74 21.4257 110.308 21.8887 110.327 22.4406L110.604 30.4358L102.609 30.7126C102.057 30.7318 101.625 31.1947 101.644 31.7467C101.663 32.2986 102.126 32.7306 102.678 32.7115L111.673 32.4ZM1 1L0.321398 1.73451L0.394848 1.80237L1.07346 1.06787L1.75206 0.333364L1.67861 0.265503L1 1ZM1.07346 1.06787L0.41554 1.82096L1.57032 2.8298L2.22824 2.0767L2.88615 1.32361L1.73137 0.314773L1.07346 1.06787ZM2.22824 2.0767L1.57032 2.8298C2.34108 3.50314 2.93086 4.01352 3.33759 4.35896L3.98494 3.59676L4.63228 2.83457C4.23645 2.49838 3.65511 1.99538 2.88615 1.32361L2.22824 2.0767ZM3.98494 3.59676L3.33759 4.35896L3.93951 4.87018L4.58685 4.10798L5.2342 3.34579L4.63228 2.83457L3.98494 3.59676ZM4.58685 4.10798L3.93951 4.87018L4.54142 5.38139L5.18877 4.6192L5.83612 3.857L5.2342 3.34579L4.58685 4.10798ZM5.18877 4.6192L4.54142 5.38139C4.92074 5.70356 5.28857 6.04414 5.64489 6.40326L6.35476 5.69892L7.06463 4.99459C6.66885 4.5957 6.25935 4.21646 5.83612 3.857L5.18877 4.6192ZM6.35476 5.69892L5.64489 6.40326L6.20897 6.97177L6.91884 6.26743L7.6287 5.56309L7.06463 4.99459L6.35476 5.69892ZM6.91884 6.26743L6.20897 6.97177L6.77305 7.54027L7.48291 6.83593L8.19278 6.1316L7.6287 5.56309L6.91884 6.26743ZM7.48291 6.83593L6.77305 7.54027C7.22223 7.99298 7.73101 8.36687 8.29652 8.65945L8.75603 7.77129L9.21555 6.88312C8.83567 6.68657 8.4957 6.4369 8.19278 6.1316L7.48291 6.83593ZM8.75603 7.77129L8.29652 8.65945L9.00556 9.0263L9.46508 8.13813L9.9246 7.24996L9.21555 6.88312L8.75603 7.77129ZM9.46508 8.13813L9.00556 9.0263L9.71461 9.39314L10.1741 8.50498L10.6336 7.61681L9.9246 7.24996L9.46508 8.13813ZM10.1741 8.50498L9.71461 9.39314C10.1742 9.63094 10.6259 9.8775 11.0697 10.1328L11.5684 9.26601L12.067 8.39922C11.5972 8.12894 11.1194 7.86814 10.6336 7.61681L10.1741 8.50498ZM11.5684 9.26601L11.0697 10.1328L11.7549 10.527L12.2535 9.6602L12.7522 8.79341L12.067 8.39922L11.5684 9.26601ZM12.2535 9.6602L11.7549 10.527L12.44 10.9212L12.9387 10.0544L13.4374 9.1876L12.7522 8.79341L12.2535 9.6602ZM12.9387 10.0544L12.44 10.9212C12.9164 11.1952 13.4013 11.4528 13.8948 11.6938L14.3337 10.7953L14.7726 9.89675C14.3197 9.67552 13.8746 9.43914 13.4374 9.1876L12.9387 10.0544ZM14.3337 10.7953L13.8948 11.6938L14.6046 12.0405L15.0435 11.142L15.4824 10.2435L14.7726 9.89675L14.3337 10.7953ZM15.0435 11.142L14.6046 12.0405L15.3144 12.3872L15.7533 11.4887L16.1922 10.5902L15.4824 10.2435L15.0435 11.142ZM15.7533 11.4887L15.3144 12.3872C15.7758 12.6126 16.2336 12.8475 16.6878 13.0919L17.1616 12.2113L17.6355 11.3307C17.1583 11.0739 16.6772 10.8271 16.1922 10.5902L15.7533 11.4887ZM17.1616 12.2113L16.6878 13.0919L17.3864 13.4678L17.8602 12.5872L18.3341 11.7066L17.6355 11.3307L17.1616 12.2113ZM17.8602 12.5872L17.3864 13.4678L18.0849 13.8437L18.5588 12.9631L19.0326 12.0825L18.3341 11.7066L17.8602 12.5872ZM18.5588 12.9631L18.0849 13.8437C18.5632 14.101 19.0473 14.3484 19.5372 14.5857L19.9732 13.6858L20.4092 12.7858C19.9447 12.5608 19.4858 12.3264 19.0326 12.0825L18.5588 12.9631ZM19.9732 13.6858L19.5372 14.5857L20.2531 14.9325L20.689 14.0326L21.125 13.1326L20.4092 12.7858L19.9732 13.6858ZM20.689 14.0326L20.2531 14.9325L20.9689 15.2793L21.4049 14.3793L21.8409 13.4794L21.125 13.1326L20.689 14.0326ZM21.4049 14.3793L20.9689 15.2793C21.4861 15.5298 22.0177 15.745 22.5634 15.9246L22.8761 14.9748L23.1887 14.0249C22.7274 13.873 22.2782 13.6912 21.8409 13.4794L21.4049 14.3793ZM22.8761 14.9748L22.5634 15.9246L23.3187 16.1732L23.6314 15.2234L23.944 14.2735L23.1887 14.0249L22.8761 14.9748ZM23.6314 15.2234L23.3187 16.1732L24.074 16.4219L24.3867 15.472L24.6993 14.5221L23.944 14.2735L23.6314 15.2234ZM24.3867 15.472L24.074 16.4219C24.5921 16.5924 25.1141 16.7511 25.6401 16.8978L25.9089 15.9346L26.1776 14.9714C25.6811 14.8329 25.1883 14.6831 24.6993 14.5221L24.3867 15.472ZM25.9089 15.9346L25.6401 16.8978L26.4071 17.1118L26.6758 16.1486L26.9445 15.1854L26.1776 14.9714L25.9089 15.9346ZM26.6758 16.1486L26.4071 17.1118L27.174 17.3258L27.4427 16.3625L27.7114 15.3993L26.9445 15.1854L26.6758 16.1486ZM27.4427 16.3625L27.174 17.3258C27.6661 17.4631 28.1564 17.6156 28.6449 17.7835L28.9699 16.8378L29.2949 15.8921C28.7697 15.7116 28.2418 15.5473 27.7114 15.3993L27.4427 16.3625ZM28.9699 16.8378L28.6449 17.7835L29.4052 18.0448L29.7302 17.0991L30.0552 16.1534L29.2949 15.8921L28.9699 16.8378ZM29.7302 17.0991L29.4052 18.0448L30.1654 18.3061L30.4905 17.3604L30.8155 16.4147L30.0552 16.1534L29.7302 17.0991ZM30.4905 17.3604L30.1654 18.3061C30.7478 18.5063 31.3456 18.6345 31.9573 18.6903L32.0482 17.6944L32.139 16.6986C31.6875 16.6574 31.2469 16.563 30.8155 16.4147L30.4905 17.3604ZM32.0482 17.6944L31.9573 18.6903L32.7547 18.763L32.8456 17.7672L32.9364 16.7713L32.139 16.6986L32.0482 17.6944ZM32.8456 17.7672L32.7547 18.763L33.5521 18.8358L33.643 17.8399L33.7338 16.844L32.9364 16.7713L32.8456 17.7672ZM33.643 17.8399L33.5521 18.8358C34.1392 18.8893 34.7293 18.8938 35.3218 18.8497L35.2474 17.8525L35.1731 16.8552C34.6895 16.8913 34.2099 16.8874 33.7338 16.844L33.643 17.8399ZM35.2474 17.8525L35.3218 18.8497L36.1288 18.7895L36.0545 17.7923L35.9802 16.7951L35.1731 16.8552L35.2474 17.8525ZM36.0545 17.7923L36.1288 18.7895L36.9359 18.7294L36.8616 17.7322L36.7873 16.7349L35.9802 16.7951L36.0545 17.7923ZM36.8616 17.7322L36.9359 18.7294C37.367 18.6973 37.7894 18.7338 38.2071 18.8392L38.4518 17.8696L38.6964 16.9C38.07 16.7419 37.4322 16.6868 36.7873 16.7349L36.8616 17.7322ZM38.4518 17.8696L38.2071 18.8392L38.9902 19.0369L39.2349 18.0673L39.4795 17.0977L38.6964 16.9L38.4518 17.8696ZM39.2349 18.0673L38.9902 19.0369L39.7733 19.2345L40.018 18.2649L40.2626 17.2953L39.4795 17.0977L39.2349 18.0673ZM40.018 18.2649L39.7733 19.2345C40.423 19.3985 41.0831 19.4317 41.7458 19.3337L41.5996 18.3445L41.4534 17.3552C41.0514 17.4146 40.657 17.3948 40.2626 17.2953L40.018 18.2649ZM41.5996 18.3445L41.7458 19.3337L42.5444 19.2157L42.3982 18.2264L42.2519 17.2372L41.4534 17.3552L41.5996 18.3445ZM42.3982 18.2264L42.5444 19.2157L43.3429 19.0977L43.1967 18.1084L43.0505 17.1191L42.2519 17.2372L42.3982 18.2264ZM43.1967 18.1084L43.3429 19.0977C43.7656 19.0352 44.187 19.0429 44.6115 19.1214L44.7936 18.1382L44.9756 17.1549C44.3357 17.0364 43.6925 17.0243 43.0505 17.1191L43.1967 18.1084ZM44.7936 18.1382L44.6115 19.1214L45.4098 19.2692L45.5919 18.2859L45.7739 17.3027L44.9756 17.1549L44.7936 18.1382ZM45.5919 18.2859L45.4098 19.2692L46.2081 19.417L46.3902 18.4337L46.5722 17.4504L45.7739 17.3027L45.5919 18.2859ZM46.3902 18.4337L46.2081 19.417C46.879 19.5412 47.5503 19.5226 48.2128 19.3612L47.976 18.3896L47.7392 17.418C47.3516 17.5125 46.9658 17.5233 46.5722 17.4504L46.3902 18.4337ZM47.976 18.3896L48.2128 19.3612L49.0004 19.1692L48.7636 18.1977L48.5268 17.2261L47.7392 17.418L47.976 18.3896ZM48.7636 18.1977L49.0004 19.1692L49.7879 18.9773L49.5511 18.0057L49.3143 17.0342L48.5268 17.2261L48.7636 18.1977ZM49.5511 18.0057L49.7879 18.9773C50.2815 18.857 50.7739 18.7623 51.2651 18.6931L51.1255 17.7029L50.9859 16.7127C50.428 16.7913 49.8708 16.8985 49.3143 17.0342L49.5511 18.0057ZM51.1255 17.7029L51.2651 18.6931L52.0519 18.5822L51.9123 17.592L51.7727 16.6017L50.9859 16.7127L51.1255 17.7029ZM51.9123 17.592L52.0519 18.5822L52.8388 18.4713L52.6992 17.481L52.5596 16.4908L51.7727 16.6017L51.9123 17.592ZM52.6992 17.481L52.8388 18.4713C53.305 18.4055 53.7755 18.3809 54.251 18.3977L54.2862 17.3983L54.3214 16.3989C53.73 16.3781 53.1425 16.4087 52.5596 16.4908L52.6992 17.481ZM54.2862 17.3983L54.251 18.3977L55.0512 18.4258L55.0864 17.4265L55.1216 16.4271L54.3214 16.3989L54.2862 17.3983ZM55.0864 17.4265L55.0512 18.4258L55.8514 18.454L55.8866 17.4546L55.9217 16.4552L55.1216 16.4271L55.0864 17.4265ZM55.8866 17.4546L55.8514 18.454C56.4323 18.4745 57.0104 18.4535 57.5853 18.3911L57.4773 17.3969L57.3694 16.4028C56.8902 16.4548 56.4078 16.4724 55.9217 16.4552L55.8866 17.4546ZM57.4773 17.3969L57.5853 18.3911L58.3759 18.3053L58.2679 17.3111L58.16 16.3169L57.3694 16.4028L57.4773 17.3969ZM58.2679 17.3111L58.3759 18.3053L59.1665 18.2194L59.0585 17.2253L58.9506 16.2311L58.16 16.3169L58.2679 17.3111ZM59.0585 17.2253L59.1665 18.2194C59.6652 18.1653 60.1671 18.1323 60.6721 18.1206L60.6489 17.1208L60.6257 16.1211C60.0644 16.1341 59.506 16.1708 58.9506 16.2311L59.0585 17.2253ZM60.6489 17.1208L60.6721 18.1206L61.4718 18.102L61.4486 17.1023L61.4254 16.1025L60.6257 16.1211L60.6489 17.1208ZM61.4486 17.1023L61.4718 18.102L62.2716 18.0834L62.2484 17.0837L62.2252 16.084L61.4254 16.1025L61.4486 17.1023ZM62.2484 17.0837L62.2716 18.0834C62.871 18.0695 63.4628 17.9965 64.046 17.8645L63.8251 16.8892L63.6042 15.9139C63.1514 16.0164 62.6921 16.0731 62.2252 16.084L62.2484 17.0837ZM63.8251 16.8892L64.046 17.8645L64.8229 17.6885L64.602 16.7132L64.3811 15.7379L63.6042 15.9139L63.8251 16.8892ZM64.602 16.7132L64.8229 17.6885L65.5999 17.5125L65.379 16.5372L65.1581 15.5619L64.3811 15.7379L64.602 16.7132ZM65.379 16.5372L65.5999 17.5125C66.07 17.406 66.5442 17.3348 67.0228 17.2988L66.9477 16.3016L66.8726 15.3044C66.2955 15.3479 65.7239 15.4338 65.1581 15.5619L65.379 16.5372ZM66.9477 16.3016L67.0228 17.2988L67.8146 17.2392L67.7395 16.242L67.6644 15.2448L66.8726 15.3044L66.9477 16.3016ZM67.7395 16.242L67.8146 17.2392L68.6063 17.1795L68.5312 16.1824L68.4561 15.1852L67.6644 15.2448L67.7395 16.242ZM68.5312 16.1824L68.6063 17.1795C69.1146 17.1412 69.6235 17.118 70.1331 17.1096L70.1167 16.1098L70.1004 15.1099C69.5516 15.1189 69.0035 15.144 68.4561 15.1852L68.5312 16.1824ZM70.1167 16.1098L70.1331 17.1096L70.9268 17.0967L70.9105 16.0968L70.8942 15.0969L70.1004 15.1099L70.1167 16.1098ZM70.9105 16.0968L70.9268 17.0967L71.7206 17.0837L71.7043 16.0838L71.6879 15.084L70.8942 15.0969L70.9105 16.0968ZM71.7043 16.0838L71.7206 17.0837C72.2953 17.0743 72.8708 17.0258 73.4468 16.9384L73.2968 15.9497L73.1468 14.961C72.6578 15.0352 72.1716 15.0761 71.6879 15.084L71.7043 16.0838ZM73.2968 15.9497L73.4468 16.9384L74.2456 16.8172L74.0956 15.8285L73.9456 14.8398L73.1468 14.961L73.2968 15.9497ZM74.0956 15.8285L74.2456 16.8172L75.0444 16.696L74.8944 15.7073L74.7444 14.7186L73.9456 14.8398L74.0956 15.8285ZM74.8944 15.7073L75.0444 16.696C75.4769 16.6304 75.9045 16.6313 76.3308 16.6978L76.485 15.7098L76.6393 14.7218C76.0098 14.6235 75.377 14.6227 74.7444 14.7186L74.8944 15.7073ZM76.485 15.7098L76.3308 16.6978L77.1226 16.8215L77.2769 15.8334L77.4311 14.8454L76.6393 14.7218L76.485 15.7098ZM77.2769 15.8334L77.1226 16.8215L77.9144 16.9451L78.0687 15.9571L78.223 14.9691L77.4311 14.8454L77.2769 15.8334ZM78.0687 15.9571L77.9144 16.9451C78.4819 17.0337 79.0525 17.0879 79.626 17.1078L79.6605 16.1084L79.695 15.1089C79.2019 15.0919 78.7113 15.0453 78.223 14.9691L78.0687 15.9571ZM79.6605 16.1084L79.626 17.1078L80.426 17.1354L80.4605 16.136L80.495 15.1366L79.695 15.1089L79.6605 16.1084ZM80.4605 16.136L80.426 17.1354L81.2259 17.163L81.2605 16.1636L81.295 15.1642L80.495 15.1366L80.4605 16.136ZM81.2605 16.1636L81.2259 17.163C81.6752 17.1785 82.1157 17.2497 82.5494 17.377L82.8312 16.4176L83.1129 15.4581C82.519 15.2837 81.9124 15.1855 81.295 15.1642L81.2605 16.1636ZM82.8312 16.4176L82.5494 17.377L83.3201 17.6034L83.6019 16.6439L83.8836 15.6844L83.1129 15.4581L82.8312 16.4176ZM83.6019 16.6439L83.3201 17.6034L84.0908 17.8297L84.3726 16.8702L84.6543 15.9107L83.8836 15.6844L83.6019 16.6439ZM84.3726 16.8702L84.0908 17.8297C84.6604 17.9969 85.24 18.1135 85.829 18.1791L85.9397 17.1852L86.0504 16.1914C85.5775 16.1387 85.1123 16.0452 84.6543 15.9107L84.3726 16.8702ZM85.9397 17.1852L85.829 18.1791L86.6255 18.2678L86.7362 17.274L86.8469 16.2801L86.0504 16.1914L85.9397 17.1852ZM86.7362 17.274L86.6255 18.2678L87.4219 18.3565L87.5327 17.3627L87.6434 16.3688L86.8469 16.2801L86.7362 17.274ZM87.5327 17.3627L87.4219 18.3565C87.8739 18.4069 88.3122 18.5096 88.7384 18.6649L89.0808 17.7253L89.4232 16.7858C88.8471 16.5759 88.2533 16.4368 87.6434 16.3688L87.5327 17.3627ZM89.0808 17.7253L88.7384 18.6649L89.49 18.9388L89.8324 17.9992L90.1748 17.0597L89.4232 16.7858L89.0808 17.7253ZM89.8324 17.9992L89.49 18.9388L90.2417 19.2127L90.5841 18.2732L90.9265 17.3336L90.1748 17.0597L89.8324 17.9992ZM90.5841 18.2732L90.2417 19.2127C90.7814 19.4094 91.3321 19.5725 91.8935 19.7019L92.1182 18.7275L92.3428 17.7531C91.861 17.6419 91.389 17.5021 90.9265 17.3336L90.5841 18.2732ZM92.1182 18.7275L91.8935 19.7019L92.6758 19.8823L92.9005 18.9079L93.1252 17.9335L92.3428 17.7531L92.1182 18.7275ZM92.9005 18.9079L92.6758 19.8823L93.4582 20.0627L93.6829 19.0883L93.9076 18.1139L93.1252 17.9335L92.9005 18.9079ZM93.6829 19.0883L93.4582 20.0627C93.8728 20.1583 94.2608 20.318 94.6263 20.5439L95.1521 19.6933L95.6779 18.8427C95.1277 18.5025 94.5363 18.2589 93.9076 18.1139L93.6829 19.0883ZM95.1521 19.6933L94.6263 20.5439L95.313 20.9684L95.8389 20.1178L96.3647 19.2672L95.6779 18.8427L95.1521 19.6933ZM95.8389 20.1178L95.313 20.9684L95.9998 21.3929L96.5256 20.5423L97.0514 19.6917L96.3647 19.2672L95.8389 20.1178ZM96.5256 20.5423L95.9998 21.3929C96.5234 21.7166 97.0773 21.9759 97.6602 22.1698L97.9759 21.2209L98.2916 20.2721C97.8565 20.1273 97.4435 19.9341 97.0514 19.6917L96.5256 20.5423ZM97.9759 21.2209L97.6602 22.1698L98.4237 22.4238L98.7395 21.475L99.0552 20.5261L98.2916 20.2721L97.9759 21.2209ZM98.7395 21.475L98.4237 22.4238L99.1873 22.6779L99.503 21.729L99.8187 20.7802L99.0552 20.5261L98.7395 21.475ZM99.503 21.729L99.1873 22.6779C99.6335 22.8263 100.059 23.0167 100.464 23.2492L100.962 22.3816L101.459 21.5141C100.938 21.2152 100.391 20.9705 99.8187 20.7802L99.503 21.729ZM100.962 22.3816L100.464 23.2492L101.159 23.6477L101.657 22.7802L102.154 21.9126L101.459 21.5141L100.962 22.3816ZM101.657 22.7802L101.159 23.6477L101.855 24.0462L102.352 23.1787L102.849 22.3112L102.154 21.9126L101.657 22.7802ZM102.352 23.1787L101.855 24.0462C102.224 24.2579 102.554 24.5255 102.849 24.8533L103.593 24.1854L104.337 23.5175C103.904 23.0344 103.407 22.6309 102.849 22.3112L102.352 23.1787ZM103.593 24.1854L102.849 24.8533L103.394 25.4615L104.139 24.7936L104.883 24.1257L104.337 23.5175L103.593 24.1854ZM104.139 24.7936L103.394 25.4615L103.94 26.0697L104.684 25.4018L105.429 24.7339L104.883 24.1257L104.139 24.7936ZM104.684 25.4018L103.94 26.0697C104.333 26.5081 104.749 26.9123 105.186 27.2816L105.831 26.5178L106.476 25.7539C106.112 25.4462 105.763 25.1065 105.429 24.7339L104.684 25.4018ZM105.831 26.5178L105.186 27.2816L105.787 27.7894L106.432 27.0255L107.077 26.2617L106.476 25.7539L105.831 26.5178ZM106.432 27.0255L105.787 27.7894L106.388 28.2972L107.033 27.5333L107.678 26.7694L107.077 26.2617L106.432 27.0255ZM107.033 27.5333L106.388 28.2972C106.843 28.6815 107.34 29.0196 107.879 29.3122L108.357 28.4334L108.834 27.5547C108.409 27.3241 108.025 27.0621 107.678 26.7694L107.033 27.5333ZM108.357 28.4334L107.879 29.3122L108.602 29.7046L109.079 28.8258L109.556 27.947L108.834 27.5547L108.357 28.4334ZM109.079 28.8258L108.602 29.7046L109.324 30.0969L109.801 29.2182L110.279 28.3394L109.556 27.947L109.079 28.8258ZM109.801 29.2182L109.324 30.0969C109.735 30.3199 109.91 30.4997 109.974 30.5974L110.811 30.0503L111.648 29.5031C111.329 29.0145 110.831 28.6396 110.279 28.3394L109.801 29.2182ZM110.811 30.0503L109.974 30.5974L110.262 31.0372L111.099 30.49L111.936 29.9428L111.648 29.5031L110.811 30.0503ZM111.099 30.49L110.262 31.0372L110.549 31.4769L111.386 30.9297L112.223 30.3825L111.936 29.9428L111.099 30.49ZM111.386 30.9297L110.549 31.4769C110.644 31.6221 110.71 31.7251 110.751 31.7899C110.772 31.8243 110.78 31.8375 110.779 31.837C110.779 31.8359 110.776 31.8315 110.773 31.8244C110.77 31.8185 110.762 31.8037 110.752 31.7831C110.747 31.7717 110.722 31.7168 110.701 31.6413C110.692 31.6086 110.667 31.5158 110.665 31.3935C110.664 31.3303 110.668 31.2227 110.705 31.0956C110.744 30.9642 110.828 30.7812 111.006 30.6253L111.665 31.3772L112.324 32.1292C112.67 31.826 112.666 31.433 112.665 31.3591C112.663 31.236 112.638 31.142 112.629 31.1079C112.607 31.0294 112.58 30.9705 112.572 30.9539C112.552 30.9088 112.531 30.8714 112.522 30.8557C112.5 30.8166 112.474 30.7732 112.449 30.733C112.396 30.6486 112.32 30.5305 112.223 30.3825L111.386 30.9297ZM111.665 31.3772L111.006 30.6253L110.997 30.6331L111.656 31.385L112.315 32.137L112.324 32.1292L111.665 31.3772ZM111.656 31.385L112.157 30.5196L112.066 30.467L111.565 31.3324L111.064 32.1978L111.155 32.2505L111.656 31.385ZM111.565 31.3324L110.883 32.0635L110.956 32.1318L111.638 31.4006L112.32 30.6695L112.247 30.6012L111.565 31.3324Z" fill="var(--stroke-0, #28A2CD)"/>
</svg>
