<svg preserveAspectRatio="none" width="100%" height="100%" overflow="visible" style="display: block;" viewBox="0 0 20 20" fill="none" xmlns="http://www.w3.org/2000/svg">
<g id="Bowl-Food Streamline Phosphor" clip-path="url(#clip0_0_137)">
<path id="Vector" d="M19.0462 8.1125H18.2574C17.6727 1.75592 10.426 -1.58393 5.21343 2.10077C3.23302 3.5007 1.96473 5.69744 1.74255 8.1125H0.953844C0.537492 8.11248 0.2 8.44999 0.2 8.86634C0.20675 12.5202 2.23896 15.869 5.47692 17.562V17.9125C5.47692 18.7452 6.15194 19.4202 6.98462 19.4202H13.0154C13.8481 19.4202 14.5231 18.7452 14.5231 17.9125V17.562C17.761 15.869 19.7933 12.5202 19.8 8.86634C19.8 8.45001 19.4625 8.1125 19.0462 8.1125ZM16.7413 8.1125H11.8959C12.8099 6.74134 14.1926 5.75062 15.7848 5.32609C16.3054 6.17291 16.6321 7.12448 16.7413 8.1125ZM14.2856 3.61109C14.4584 3.75244 14.6239 3.90164 14.7822 4.0587C12.7754 4.76463 11.1171 6.21545 10.1508 8.11062H7.37096C8.33631 5.40464 10.8962 3.59573 13.7692 3.58942C13.9417 3.58942 14.1141 3.59791 14.2856 3.61109ZM10 2.08173C10.6049 2.08213 11.2071 2.16358 11.7904 2.32391C8.89894 3.04116 6.61103 5.24859 5.79071 8.1125H3.25873C3.64586 4.68077 6.5465 2.08584 10 2.08173ZM13.4545 16.4048C13.1859 16.5282 13.0143 16.7971 13.0154 17.0927V17.9125H6.98462V17.0927C6.98574 16.7971 6.81406 16.5282 6.5455 16.4048C3.84738 15.1632 2.01577 12.5774 1.73973 9.62019H18.2574C17.982 12.5768 16.1515 15.1624 13.4545 16.4048Z" fill="var(--fill-0, #8F403D)"/>
</g>
<defs>
<clipPath id="clip0_0_137">
<rect width="20" height="20" fill="white"/>
</clipPath>
</defs>
</svg>
