<svg preserveAspectRatio="none" width="100%" height="100%" overflow="visible" style="display: block;" viewBox="0 0 20 20" fill="none" xmlns="http://www.w3.org/2000/svg">
<g id="phone">
<path id="Vector" d="M11.8 3H8.2C7.53726 3 7 3.53726 7 4.2V4.8C7 5.46274 7.53726 6 8.2 6H11.8C12.4627 6 13 5.46274 13 4.8V4.2C13 3.53726 12.4627 3 11.8 3Z" stroke="var(--stroke-0, #5C3D8F)" stroke-width="1.4" stroke-linecap="round" stroke-linejoin="round"/>
<path id="Vector_2" d="M13.1429 4H14.8571C15.1602 4 15.451 4.12292 15.6653 4.3417C15.8795 4.5605 16 4.85724 16 5.16667V16.8333C16 17.1427 15.8795 17.4395 15.6653 17.6583C15.451 17.877 15.1602 18 14.8571 18H5.14286C4.83975 18 4.54906 17.877 4.33473 17.6583C4.12041 17.4395 4 17.1427 4 16.8333V5.16667C4 4.85724 4.12041 4.5605 4.33473 4.3417C4.54906 4.12292 4.83975 4 5.14286 4H6.85714" stroke="var(--stroke-0, #5C3D8F)" stroke-width="1.4" stroke-linecap="round" stroke-linejoin="round"/>
<path id="Vector_3" d="M8 12.75L9.66667 14L13 9" stroke="var(--stroke-0, #5C3D8F)" stroke-width="1.4" stroke-linecap="round" stroke-linejoin="round"/>
</g>
</svg>
