<svg width="32" height="32" viewBox="0 0 32 32" fill="none" xmlns="http://www.w3.org/2000/svg">
  <circle cx="16" cy="16" r="16" fill="#3C4459"/>
  <g clip-path="url(#clip0_163_22197)">
    <path d="M15.9894 9.99765C16.4036 9.99765 16.7394 10.3334 16.7394 10.7477V11.3289C16.7394 13.4943 18.4952 15.2499 20.6604 15.25H21.2323C21.6462 15.2503 21.9822 15.5861 21.9823 16C21.9823 16.414 21.6463 16.7497 21.2323 16.75H20.6604C18.4951 16.7501 16.7394 18.5058 16.7394 20.6711V21.2523C16.7392 21.6665 16.4035 22.0024 15.9894 22.0024C15.5754 22.002 15.2395 21.6663 15.2394 21.2523V20.8C15.2394 18.5632 13.4261 16.75 11.1894 16.75H10.7476C10.3336 16.7498 9.99764 16.414 9.99756 16C9.99756 15.6377 10.2548 15.3353 10.5964 15.2652L10.7476 15.25H11.3194C13.4846 15.2498 15.2394 13.4942 15.2394 11.3289V10.7477C15.2394 10.3336 15.5754 9.9979 15.9894 9.99765Z" fill="white"/>
  </g>
  <defs>
    <clipPath id="clip0_163_22197">
      <rect width="12" height="12" fill="white" transform="translate(10 10)"/>
    </clipPath>
  </defs>
</svg>
