<svg width="76" height="21" viewBox="0 0 76 21" fill="none" xmlns="http://www.w3.org/2000/svg">
<path d="M5.87106e-06 4.536H19.6L23.072 8.008V20.216H18.452V8.372H13.804V20.216H9.26801V8.372H4.62001V20.216H5.87106e-06V4.536ZM25.7578 20.216V0.616002H30.4618V16.296H35.7258V12.376H39.8698V20.216H25.7578ZM41.9727 20.216V4.536H46.6767V20.216H41.9727ZM41.9727 3.08V1.66893e-06H46.6767V3.08H41.9727ZM49.1315 20.216V16.464H58.6515V13.608H49.1315V7.728L52.3235 4.536H63.3555V8.288H53.8355V11.032H63.3555V17.108L60.2475 20.216H49.1315ZM65.8164 2.016L70.5204 0.616002V5.096H75.9524V9.016H70.5204V16.296H75.9524V20.216H69.1764L65.8164 16.856V2.016Z" fill="url(#paint0_linear_163_22187)"/>
<defs>
<linearGradient id="paint0_linear_163_22187" x1="-1.34399" y1="2.716" x2="84.156" y2="20.216" gradientUnits="userSpaceOnUse">
<stop stop-color="#23272F"/>
<stop offset="1" stop-color="#47B0F5"/>
</linearGradient>
</defs>
</svg>
